# xmcd
#
# Track frame offsets:
#	150
#	13011
#	29101
#	40914
#	54920
#	68507
#	82314
#	99355
#	114993
#	124959
#	137960
#	147997
#	166934
#	183881
#	201118
#	222061
#	240839
#	256731
#	267876
#	279603
#	291474
#	306904
#	320480
#
# Disc length: 4495 seconds
# Revision: 0
# Processed by: cddbd v1.5.2PL0 Copyright (c) Steve Scherf et al.
# Submitted via: dBpowerAMP V12.0
#
DISCID=53118d17
DTITLE=Joe Ely - The Definitive Collection
DYEAR=2013
DGENRE=Country
TTITLE0=Mardi Gras Waltz
TTITLE1=I Had My Hopes Up High
TTITLE2=Gambler's Bride
TTITLE3=Tennessee's Not The State I'm In
TTITLE4=If You Were A Bluebird
TTITLE5=Treat Me Like A Saturday Night
TTITLE6=Honky Tonk Masquerade
TTITLE7=Honky Tonkin'
TTITLE8=Tonight I ThinkI'm Gonna Go Downtown
TTITLE9=I'll Be Your Fool
TTITLE10=Fingernails
TTITLE11=Fools Fall In Love
TTITLE12=B.B.Q. and Foam
TTITLE13=Crazy Lemon
TTITLE14=Down On The Drag
TTITLE15=Time For Travelin'
TTITLE16=Dallas
TTITLE17=Hard Livin'
TTITLE18=Musta Notta Gotta Lotta
TTITLE19=I Keep Gettin' Paid The Same
TTITLE20=Cool Rockin' Loretta
TTITLE21=Midnight Shift (Live In London)
TTITLE22=Not Fade Away (Live In London)
EXTD=
EXTT0=
EXTT1=
EXTT2=
EXTT3=
EXTT4=
EXTT5=
EXTT6=
EXTT7=
EXTT8=
EXTT9=
EXTT10=
EXTT11=
EXTT12=
EXTT13=
EXTT14=
EXTT15=
EXTT16=
EXTT17=
EXTT18=
EXTT19=
EXTT20=
EXTT21=
EXTT22=
PLAYORDER=
